<mxfile host="app.diagrams.net" modified="2020-11-17T04:11:35.818Z" agent="5.0 (Windows NT 10.0; Win64; x64) AppleWebKit/537.36 (KHTML, like Gecko) Chrome/86.0.4240.198 Safari/537.36" etag="Vd8GbA0w8VVHIusgZC-c" version="13.9.9" type="github">
  <diagram id="-W8-tbN9cQJz-5VFYQ2J" name="Page-1">
    <mxGraphModel dx="868" dy="482" grid="1" gridSize="10" guides="1" tooltips="1" connect="1" arrows="1" fold="1" page="1" pageScale="1" pageWidth="1920" pageHeight="1200" math="0" shadow="0">
      <root>
        <mxCell id="0" />
        <mxCell id="1" parent="0" />
        <mxCell id="d5pf9p7Mf6IGYReZJmvf-4" value="&lt;p style=&quot;margin: 0px ; margin-top: 4px ; text-align: center&quot;&gt;&lt;i&gt;&amp;lt;&amp;lt;Interface&amp;gt;&amp;gt;&lt;/i&gt;&lt;/p&gt;&lt;p style=&quot;margin: 0px ; margin-top: 4px ; text-align: center&quot;&gt;&lt;b&gt;Command&lt;/b&gt;&lt;br&gt;&lt;b&gt;&lt;/b&gt;&lt;/p&gt;&lt;hr size=&quot;1&quot;&gt;&lt;p style=&quot;margin: 0px ; margin-left: 4px&quot;&gt;+ undo(): void&lt;br&gt;+ redo(): void &lt;br&gt;&lt;/p&gt;&lt;hr size=&quot;1&quot;&gt;" style="verticalAlign=top;align=left;overflow=fill;fontSize=12;fontFamily=Helvetica;html=1;" parent="1" vertex="1">
          <mxGeometry x="720" y="160" width="120" height="80" as="geometry" />
        </mxCell>
        <mxCell id="d5pf9p7Mf6IGYReZJmvf-6" value="&lt;p style=&quot;margin: 0px ; margin-top: 4px ; text-align: center&quot;&gt;&lt;i&gt;&amp;lt;&amp;lt;Class&amp;gt;&amp;gt;&lt;/i&gt;&lt;br&gt;&lt;b&gt;TestEditor&lt;/b&gt;&lt;/p&gt;&lt;hr size=&quot;1&quot;&gt;&lt;p style=&quot;margin: 0px ; margin-left: 4px&quot;&gt;+ TestEditor()&lt;/p&gt;&lt;p style=&quot;margin: 0px ; margin-left: 4px&quot;&gt;+ main(String[]):void&lt;br&gt;&lt;/p&gt;&lt;hr size=&quot;1&quot;&gt;" style="verticalAlign=top;align=left;overflow=fill;fontSize=12;fontFamily=Helvetica;html=1;" parent="1" vertex="1">
          <mxGeometry x="1600" y="160" width="120" height="80" as="geometry" />
        </mxCell>
        <mxCell id="d5pf9p7Mf6IGYReZJmvf-7" value="&lt;p style=&quot;margin: 0px ; margin-top: 4px ; text-align: center&quot;&gt;&lt;i&gt;&amp;lt;&amp;lt;Class&amp;gt;&amp;gt;&lt;/i&gt;&lt;br&gt;&lt;b&gt;DocumentInvoker&lt;/b&gt;&lt;/p&gt;&lt;hr size=&quot;1&quot;&gt;&lt;p style=&quot;margin: 0px ; margin-left: 4px&quot;&gt;- commands: ArrayList&lt;br&gt;&lt;/p&gt;&lt;p style=&quot;margin: 0px ; margin-left: 4px&quot;&gt;- currentDoc: Document&lt;br&gt;&lt;/p&gt;&lt;hr size=&quot;1&quot;&gt;&lt;p style=&quot;margin: 0px ; margin-left: 4px&quot;&gt;+ DocumentInvoker(String)&lt;br&gt;+ Redo(int): void&lt;/p&gt;&lt;p style=&quot;margin: 0px ; margin-left: 4px&quot;&gt;+ Undo(int): void&lt;/p&gt;&lt;p style=&quot;margin: 0px ; margin-left: 4px&quot;&gt;+ Write(String): void&lt;/p&gt;&lt;p style=&quot;margin: 0px ; margin-left: 4px&quot;&gt;+ Erase(String): void&lt;/p&gt;&lt;p style=&quot;margin: 0px ; margin-left: 4px&quot;&gt;+ Bold(int): void&lt;/p&gt;&lt;p style=&quot;margin: 0px ; margin-left: 4px&quot;&gt;+ RemoveBold(int)&lt;/p&gt;&lt;p style=&quot;margin: 0px ; margin-left: 4px&quot;&gt;+ Read(): String&lt;/p&gt;&lt;p style=&quot;margin: 0px ; margin-left: 4px&quot;&gt;+ printCommandBuffer(): void&lt;br&gt;&lt;/p&gt;&lt;p style=&quot;margin: 0px ; margin-left: 4px&quot;&gt;&lt;br&gt;&lt;/p&gt;" style="verticalAlign=top;align=left;overflow=fill;fontSize=12;fontFamily=Helvetica;html=1;" parent="1" vertex="1">
          <mxGeometry x="1600" y="660" width="200" height="220" as="geometry" />
        </mxCell>
        <mxCell id="d5pf9p7Mf6IGYReZJmvf-13" value="&lt;p style=&quot;margin: 0px ; margin-top: 4px ; text-align: center&quot;&gt;&lt;i&gt;&amp;lt;&amp;lt;Class&amp;gt;&amp;gt;&lt;/i&gt;&lt;/p&gt;&lt;p style=&quot;margin: 0px ; margin-top: 4px ; text-align: center&quot;&gt;&lt;b&gt;DocumentEraseCommand&lt;/b&gt;&lt;br&gt;&lt;/p&gt;&lt;hr size=&quot;1&quot;&gt;&lt;p style=&quot;margin: 0px ; margin-left: 4px&quot;&gt;- editableDoc: Document&lt;br&gt;- text: String&lt;br&gt;&lt;/p&gt;&lt;hr size=&quot;1&quot;&gt;&lt;p style=&quot;margin: 0px ; margin-left: 4px&quot;&gt;+ DocumentEraseCommand(Document, String)&lt;br&gt;+ undo(): void&lt;/p&gt;&lt;p style=&quot;margin: 0px ; margin-left: 4px&quot;&gt;+ redo(): void&lt;/p&gt;&lt;p style=&quot;margin: 0px ; margin-left: 4px&quot;&gt;+ toString(): String&lt;br&gt;&lt;/p&gt;" style="verticalAlign=top;align=left;overflow=fill;fontSize=12;fontFamily=Helvetica;html=1;" parent="1" vertex="1">
          <mxGeometry x="880" y="720" width="280" height="160" as="geometry" />
        </mxCell>
        <mxCell id="d5pf9p7Mf6IGYReZJmvf-14" value="&lt;p style=&quot;margin: 0px ; margin-top: 4px ; text-align: center&quot;&gt;&lt;i&gt;&amp;lt;&amp;lt;Class&amp;gt;&amp;gt;&lt;/i&gt;&lt;br&gt;&lt;b&gt;DocumentBoldCommand&lt;/b&gt;&lt;/p&gt;&lt;hr size=&quot;1&quot;&gt;&lt;p style=&quot;margin: 0px ; margin-left: 4px&quot;&gt;- editableDoc: Document&lt;br&gt;- line: int&lt;br&gt;&lt;/p&gt;&lt;hr size=&quot;1&quot;&gt;&lt;p style=&quot;margin: 0px ; margin-left: 4px&quot;&gt;+ DocumentBoldCommand(Document, int)&lt;br&gt;&lt;/p&gt;&lt;p style=&quot;margin: 0px ; margin-left: 4px&quot;&gt;+ undo(): void&lt;br&gt;+ redo(): void&lt;/p&gt;&lt;p style=&quot;margin: 0px ; margin-left: 4px&quot;&gt;+ toString(): String&lt;br&gt;&lt;/p&gt;" style="verticalAlign=top;align=left;overflow=fill;fontSize=12;fontFamily=Helvetica;html=1;" parent="1" vertex="1">
          <mxGeometry x="520" y="720" width="280" height="160" as="geometry" />
        </mxCell>
        <mxCell id="d5pf9p7Mf6IGYReZJmvf-15" value="&lt;p style=&quot;margin: 0px ; margin-top: 4px ; text-align: center&quot;&gt;&lt;i&gt;&amp;lt;&amp;lt;Class&amp;gt;&amp;gt;&lt;/i&gt;&lt;br&gt;&lt;b&gt;Document&lt;/b&gt;&lt;/p&gt;&lt;hr size=&quot;1&quot;&gt;&lt;p style=&quot;margin: 0px ; margin-left: 4px&quot;&gt;- textArray: ArrayList&lt;br&gt;- name: String&lt;br&gt;&lt;/p&gt;&lt;hr size=&quot;1&quot;&gt;&lt;p style=&quot;margin: 0px ; margin-left: 4px&quot;&gt;+ Write(String): void&lt;br&gt;+ Erase(String): void&lt;/p&gt;&lt;p style=&quot;margin: 0px ; margin-left: 4px&quot;&gt;+ Bold(int): void&lt;/p&gt;&lt;p style=&quot;margin: 0px ; margin-left: 4px&quot;&gt;+ RemoveBold(int): void&lt;/p&gt;&lt;p style=&quot;margin: 0px ; margin-left: 4px&quot;&gt;+ Erase(int): void&lt;/p&gt;&lt;p style=&quot;margin: 0px ; margin-left: 4px&quot;&gt;+ Read(): String&lt;br&gt;&lt;/p&gt;" style="verticalAlign=top;align=left;overflow=fill;fontSize=12;fontFamily=Helvetica;html=1;" parent="1" vertex="1">
          <mxGeometry x="1080" y="160" width="140" height="180" as="geometry" />
        </mxCell>
        <mxCell id="d5pf9p7Mf6IGYReZJmvf-16" value="&lt;p style=&quot;margin: 0px ; margin-top: 4px ; text-align: center&quot;&gt;&lt;i&gt;&amp;lt;&amp;lt;Class&amp;gt;&amp;gt;&lt;/i&gt;&lt;br&gt;&lt;b&gt;DocumentRemoveBoldCommand&lt;/b&gt;&lt;/p&gt;&lt;hr size=&quot;1&quot;&gt;&lt;p style=&quot;margin: 0px ; margin-left: 4px&quot;&gt;- editableDoc: Document&lt;br&gt;- line: int&lt;br&gt;&lt;/p&gt;&lt;hr size=&quot;1&quot;&gt;&lt;p style=&quot;margin: 0px ; margin-left: 4px&quot;&gt;+ DocumentRemoveBoldCommand(Document, int)&lt;br&gt;+ undo(): void&lt;/p&gt;&lt;p style=&quot;margin: 0px ; margin-left: 4px&quot;&gt;+ redo(): void&lt;/p&gt;&lt;p style=&quot;margin: 0px ; margin-left: 4px&quot;&gt;+ toString(): String&lt;br&gt;&lt;/p&gt;&lt;p style=&quot;margin: 0px ; margin-left: 4px&quot;&gt;&lt;br&gt;&lt;/p&gt;" style="verticalAlign=top;align=left;overflow=fill;fontSize=12;fontFamily=Helvetica;html=1;" parent="1" vertex="1">
          <mxGeometry x="160" y="720" width="290" height="160" as="geometry" />
        </mxCell>
        <mxCell id="d5pf9p7Mf6IGYReZJmvf-17" style="edgeStyle=orthogonalEdgeStyle;rounded=0;orthogonalLoop=1;jettySize=auto;html=1;exitX=0.5;exitY=1;exitDx=0;exitDy=0;" parent="1" source="d5pf9p7Mf6IGYReZJmvf-13" target="d5pf9p7Mf6IGYReZJmvf-13" edge="1">
          <mxGeometry relative="1" as="geometry" />
        </mxCell>
        <mxCell id="d5pf9p7Mf6IGYReZJmvf-19" value="&lt;p style=&quot;margin: 0px ; margin-top: 4px ; text-align: center&quot;&gt;&lt;i&gt;&amp;lt;&amp;lt;Class&amp;gt;&amp;gt;&lt;/i&gt;&lt;br&gt;&lt;b&gt;DocumentWriteCommand&lt;/b&gt;&lt;/p&gt;&lt;hr size=&quot;1&quot;&gt;&lt;p style=&quot;margin: 0px ; margin-left: 4px&quot;&gt;- editableDoc: Document&lt;br&gt;- text: String&lt;br&gt;&lt;/p&gt;&lt;hr size=&quot;1&quot;&gt;&lt;p style=&quot;margin: 0px ; margin-left: 4px&quot;&gt;+ DocumentWriteCommand(Document, String)&lt;br&gt;+ undo(): void&lt;/p&gt;&lt;p style=&quot;margin: 0px ; margin-left: 4px&quot;&gt;+ redo(): void&lt;/p&gt;&lt;p style=&quot;margin: 0px ; margin-left: 4px&quot;&gt;+ toString(): String&lt;br&gt;&lt;/p&gt;" style="verticalAlign=top;align=left;overflow=fill;fontSize=12;fontFamily=Helvetica;html=1;" parent="1" vertex="1">
          <mxGeometry x="1240" y="720" width="270" height="160" as="geometry" />
        </mxCell>
        <mxCell id="d5pf9p7Mf6IGYReZJmvf-29" value="" style="endArrow=block;dashed=1;endFill=0;endSize=12;html=1;entryX=0.125;entryY=1.013;entryDx=0;entryDy=0;entryPerimeter=0;exitX=0.817;exitY=-0.01;exitDx=0;exitDy=0;exitPerimeter=0;" parent="1" source="d5pf9p7Mf6IGYReZJmvf-16" target="d5pf9p7Mf6IGYReZJmvf-4" edge="1">
          <mxGeometry width="160" relative="1" as="geometry">
            <mxPoint x="480" y="730" as="sourcePoint" />
            <mxPoint x="600" y="290" as="targetPoint" />
          </mxGeometry>
        </mxCell>
        <mxCell id="d5pf9p7Mf6IGYReZJmvf-30" value="" style="endArrow=block;dashed=1;endFill=0;endSize=12;html=1;entryX=0.75;entryY=1;entryDx=0;entryDy=0;exitX=0.5;exitY=0;exitDx=0;exitDy=0;" parent="1" source="d5pf9p7Mf6IGYReZJmvf-13" target="d5pf9p7Mf6IGYReZJmvf-4" edge="1">
          <mxGeometry width="160" relative="1" as="geometry">
            <mxPoint x="1120" y="720" as="sourcePoint" />
            <mxPoint x="1520" y="370" as="targetPoint" />
          </mxGeometry>
        </mxCell>
        <mxCell id="d5pf9p7Mf6IGYReZJmvf-31" value="" style="endArrow=block;dashed=1;endFill=0;endSize=12;html=1;entryX=0.5;entryY=1;entryDx=0;entryDy=0;exitX=0.5;exitY=0;exitDx=0;exitDy=0;exitPerimeter=0;" parent="1" source="d5pf9p7Mf6IGYReZJmvf-14" target="d5pf9p7Mf6IGYReZJmvf-4" edge="1">
          <mxGeometry width="160" relative="1" as="geometry">
            <mxPoint x="810" y="710" as="sourcePoint" />
            <mxPoint x="960" y="719" as="targetPoint" />
          </mxGeometry>
        </mxCell>
        <mxCell id="d5pf9p7Mf6IGYReZJmvf-32" value="" style="endArrow=block;dashed=1;endFill=0;endSize=12;html=1;entryX=1;entryY=0.588;entryDx=0;entryDy=0;entryPerimeter=0;exitX=0.375;exitY=-0.019;exitDx=0;exitDy=0;exitPerimeter=0;" parent="1" source="d5pf9p7Mf6IGYReZJmvf-19" target="d5pf9p7Mf6IGYReZJmvf-4" edge="1">
          <mxGeometry width="160" relative="1" as="geometry">
            <mxPoint x="1440" y="719" as="sourcePoint" />
            <mxPoint x="850" y="190" as="targetPoint" />
          </mxGeometry>
        </mxCell>
        <mxCell id="d5pf9p7Mf6IGYReZJmvf-33" value="" style="endArrow=open;endFill=1;endSize=12;html=1;exitX=0.605;exitY=-0.008;exitDx=0;exitDy=0;exitPerimeter=0;entryX=0.545;entryY=1.008;entryDx=0;entryDy=0;entryPerimeter=0;" parent="1" source="d5pf9p7Mf6IGYReZJmvf-13" target="d5pf9p7Mf6IGYReZJmvf-15" edge="1">
          <mxGeometry width="160" relative="1" as="geometry">
            <mxPoint x="1150" y="719" as="sourcePoint" />
            <mxPoint x="1130" y="290" as="targetPoint" />
          </mxGeometry>
        </mxCell>
        <mxCell id="d5pf9p7Mf6IGYReZJmvf-35" value="" style="endArrow=open;endFill=1;endSize=12;html=1;entryX=-0.027;entryY=0.629;entryDx=0;entryDy=0;exitX=0.641;exitY=0;exitDx=0;exitDy=0;exitPerimeter=0;entryPerimeter=0;" parent="1" source="d5pf9p7Mf6IGYReZJmvf-16" target="d5pf9p7Mf6IGYReZJmvf-15" edge="1">
          <mxGeometry width="160" relative="1" as="geometry">
            <mxPoint x="500" y="719" as="sourcePoint" />
            <mxPoint x="660" y="719" as="targetPoint" />
          </mxGeometry>
        </mxCell>
        <mxCell id="d5pf9p7Mf6IGYReZJmvf-36" value="" style="endArrow=open;endFill=1;endSize=12;html=1;entryX=0.877;entryY=1.015;entryDx=0;entryDy=0;entryPerimeter=0;exitX=0.619;exitY=-0.01;exitDx=0;exitDy=0;exitPerimeter=0;" parent="1" source="d5pf9p7Mf6IGYReZJmvf-19" target="d5pf9p7Mf6IGYReZJmvf-15" edge="1">
          <mxGeometry width="160" relative="1" as="geometry">
            <mxPoint x="1470" y="718.8199999999999" as="sourcePoint" />
            <mxPoint x="1630" y="718.8199999999999" as="targetPoint" />
          </mxGeometry>
        </mxCell>
        <mxCell id="d5pf9p7Mf6IGYReZJmvf-37" value="" style="endArrow=open;endFill=1;endSize=12;html=1;entryX=0.067;entryY=1.008;entryDx=0;entryDy=0;entryPerimeter=0;exitX=0.596;exitY=0.008;exitDx=0;exitDy=0;exitPerimeter=0;" parent="1" source="d5pf9p7Mf6IGYReZJmvf-14" target="d5pf9p7Mf6IGYReZJmvf-15" edge="1">
          <mxGeometry width="160" relative="1" as="geometry">
            <mxPoint x="840" y="718.57" as="sourcePoint" />
            <mxPoint x="1000" y="718.57" as="targetPoint" />
          </mxGeometry>
        </mxCell>
        <mxCell id="d5pf9p7Mf6IGYReZJmvf-38" value="" style="endArrow=open;endFill=1;endSize=12;html=1;exitX=0;exitY=0.25;exitDx=0;exitDy=0;" parent="1" source="d5pf9p7Mf6IGYReZJmvf-7" target="d5pf9p7Mf6IGYReZJmvf-15" edge="1">
          <mxGeometry width="160" relative="1" as="geometry">
            <mxPoint x="1560" y="400" as="sourcePoint" />
            <mxPoint x="1720" y="400" as="targetPoint" />
          </mxGeometry>
        </mxCell>
      </root>
    </mxGraphModel>
  </diagram>
</mxfile>
